<?xml version="1.0" encoding="iso-8859-1"?>
<!-- Generator: Adobe Illustrator 19.0.0, SVG Export Plug-In . SVG Version: 6.00 Build 0)  -->
<svg version="1.1" id="Layer_1" xmlns="http://www.w3.org/2000/svg" xmlns:xlink="http://www.w3.org/1999/xlink" x="0px" y="0px"
	 viewBox="0 0 295.238 295.238" style="enable-background:new 0 0 295.238 295.238;" xml:space="preserve">
<g>
	<g>
		<g>
			<path d="M133.333,238.095c42.01,0,76.19-34.181,76.19-76.19c0-42.009-34.181-76.19-76.19-76.19
				c-42.009,0-76.19,34.181-76.19,76.19C57.143,203.914,91.324,238.095,133.333,238.095z M133.333,95.238
				c36.762,0,66.667,29.905,66.667,66.667c0,36.762-29.905,66.667-66.667,66.667c-36.762,0-66.667-29.905-66.667-66.667
				C66.666,125.143,96.571,95.238,133.333,95.238z"/>
			<path d="M133.333,185.714c13.129,0,23.81-10.681,23.81-23.81c0-13.129-10.681-23.81-23.81-23.81
				c-13.129,0-23.81,10.681-23.81,23.81C109.524,175.033,120.205,185.714,133.333,185.714z M133.333,147.619
				c7.876,0,14.286,6.41,14.286,14.286c0,7.876-6.41,14.286-14.286,14.286s-14.286-6.41-14.286-14.286
				C119.048,154.029,125.457,147.619,133.333,147.619z"/>
			<path d="M133.333,133.333c7.876,0,14.286-6.41,14.286-14.286c0-7.876-6.41-14.286-14.286-14.286s-14.286,6.41-14.286,14.286
				C119.047,126.923,125.457,133.333,133.333,133.333z M133.333,114.286c2.629,0,4.762,2.138,4.762,4.762
				c0,2.624-2.133,4.762-4.762,4.762c-2.629,0-4.762-2.138-4.762-4.762C128.571,116.424,130.705,114.286,133.333,114.286z"/>
			<path d="M133.333,190.476c-7.876,0-14.286,6.41-14.286,14.286c0,7.876,6.41,14.286,14.286,14.286
				c7.876,0,14.286-6.41,14.286-14.286C147.619,196.886,141.21,190.476,133.333,190.476z M133.333,209.524
				c-2.629,0-4.762-2.138-4.762-4.762c0-2.624,2.133-4.762,4.762-4.762c2.629,0,4.762,2.138,4.762,4.762
				C138.095,207.386,135.962,209.524,133.333,209.524z"/>
			<path d="M176.19,176.19c7.876,0,14.286-6.41,14.286-14.286s-6.41-14.286-14.286-14.286s-14.286,6.41-14.286,14.286
				C161.905,169.781,168.314,176.19,176.19,176.19z M176.19,157.143c2.629,0,4.762,2.138,4.762,4.762
				c0,2.624-2.133,4.762-4.762,4.762c-2.629,0-4.762-2.138-4.762-4.762C171.429,159.281,173.562,157.143,176.19,157.143z"/>
			<path d="M104.762,161.905c0-7.876-6.41-14.286-14.286-14.286c-7.876,0-14.286,6.41-14.286,14.286
				c0,7.876,6.41,14.286,14.286,14.286C98.352,176.191,104.762,169.781,104.762,161.905z M85.714,161.905
				c0-2.624,2.133-4.762,4.762-4.762c2.629,0,4.762,2.138,4.762,4.762c0,2.624-2.133,4.762-4.762,4.762
				C87.847,166.667,85.714,164.529,85.714,161.905z"/>
			<path d="M167.51,33.119l-2.467,9.2c42.571,11.4,76.095,44.919,87.5,87.486l9.2-2.467C249.467,81.495,213.357,45.39,167.51,33.119
				z"/>
			<path d="M133.333,0h-4.762v28.69C57.252,31.214,0,89.981,0,161.905c0,73.519,59.814,133.333,133.333,133.333
				c71.924,0,130.69-57.252,133.214-128.571h28.69v-4.762h0.001C295.238,72.629,222.61,0,133.333,0z M133.333,285.714
				c-68.271,0-123.81-55.543-123.81-123.81c0-66.671,52.976-121.176,119.048-123.69v20.871C106,66.31,92.824,76.781,92.248,77.248
				l5.981,7.414c0.124-0.095,11.219-8.905,30.343-15.533v11.824h4.762c44.638,0,80.952,36.314,80.952,80.952v4.762h14.657
				c2.867,10.876,4.39,22.062,4.39,33.333h9.524c0-11.257-1.429-22.429-4.09-33.333h18.257
				C254.51,232.733,200.01,285.714,133.333,285.714z M223.686,157.143c-2.405-46.105-39.486-83.186-85.59-85.59V9.6
				c80.243,2.476,145.067,67.3,147.543,147.543H223.686z"/>
			<rect x="261.905" y="138.095" width="9.524" height="9.524"/>
			<rect x="242.857" y="138.095" width="9.524" height="9.524"/>
			<rect x="147.619" y="19.048" width="9.524" height="9.524"/>
			<path d="M186.786,248.752l7.433,5.952c2.2-2.743,4.314-5.605,6.3-8.505l-7.867-5.371
				C190.8,243.529,188.829,246.195,186.786,248.752z"/>
			<path d="M197.91,232.476l8.238,4.776c1.762-3.038,3.429-6.186,4.952-9.357l-8.586-4.129
				C201.095,226.714,199.543,229.648,197.91,232.476z"/>
			<path d="M206.448,214.719l8.871,3.471c1.3-3.329,2.471-6.7,3.471-10.024l-9.124-2.743
				C208.743,208.5,207.657,211.629,206.448,214.719z"/>
			<path d="M79.881,75.057l-7.433-5.952c-2.2,2.743-4.314,5.605-6.3,8.505l7.867,5.371C75.867,80.281,77.838,77.614,79.881,75.057z"
				/>
			<path d="M68.757,91.333l-8.238-4.776c-1.762,3.038-3.429,6.186-4.952,9.357l8.586,4.129
				C65.571,97.095,67.124,94.162,68.757,91.333z"/>
			<path d="M51.343,105.619c-1.3,3.329-2.471,6.7-3.471,10.024l9.124,2.743c0.924-3.076,2.01-6.205,3.219-9.3L51.343,105.619z"/>
			<path d="M77.052,243.89c3.319,1.3,6.69,2.467,10.019,3.467l2.743-9.119c-3.081-0.929-6.214-2.01-9.295-3.214L77.052,243.89z"/>
			<path d="M40.538,222.786c2.752,2.2,5.614,4.319,8.5,6.295l5.376-7.862c-2.69-1.838-5.357-3.814-7.924-5.867L40.538,222.786z"/>
			<path d="M57.995,234.724c3.062,1.767,6.21,3.429,9.352,4.943l4.129-8.581c-2.929-1.41-5.862-2.967-8.719-4.61L57.995,234.724z"/>
			<path d="M95.238,261.905v9.524c47.838,0,77.924-23.852,79.181-24.867l-5.981-7.41
				C168.157,239.381,139.743,261.905,95.238,261.905z"/>
			<path d="M23.81,123.81c0,47.838,23.852,77.924,24.867,79.181l7.419-5.976c-0.233-0.286-22.762-28.881-22.762-73.205H23.81z"/>
		</g>
	</g>
</g>
<g>
</g>
<g>
</g>
<g>
</g>
<g>
</g>
<g>
</g>
<g>
</g>
<g>
</g>
<g>
</g>
<g>
</g>
<g>
</g>
<g>
</g>
<g>
</g>
<g>
</g>
<g>
</g>
<g>
</g>
</svg>
