<?xml version="1.0" encoding="iso-8859-1"?>
<!-- Generator: Adobe Illustrator 19.0.0, SVG Export Plug-In . SVG Version: 6.00 Build 0)  -->
<svg version="1.1" id="Capa_1" xmlns="http://www.w3.org/2000/svg" xmlns:xlink="http://www.w3.org/1999/xlink" x="0px" y="0px"
	 viewBox="0 0 512 512" style="enable-background:new 0 0 512 512;" xml:space="preserve">
<g>
	<g>
		<path d="M416,352h-80c-13.232,0-24,10.768-24,24v16c0,4.416,3.584,8,8,8h72c17.648,0,32-14.352,32-32v-8
			C424,355.584,420.416,352,416,352z M392,384h-64v-8c0-4.408,3.592-8,8-8h72C408,376.824,400.824,384,392,384z"/>
	</g>
</g>
<g>
	<g>
		<path d="M176,352H96c-4.416,0-8,3.584-8,8v8c0,17.648,14.352,32,32,32h72c4.416,0,8-3.584,8-8v-16
			C200,362.768,189.232,352,176,352z M184,384h-64c-8.824,0-16-7.176-16-16h72c4.408,0,8,3.592,8,8V384z"/>
	</g>
</g>
<g>
	<g>
		<path d="M456,417.472v-54.656c0-18.984-11.216-36.208-28.576-43.896L411.776,312H432v-16h-29.032l-17.064-49.776
			C378.064,223.36,356.2,208,331.504,208H180.496c-24.704,0-46.568,15.36-54.408,38.224L109.032,296H80v16h14.568l-12.584,6.496
			C65.96,326.768,56,343.112,56,361.152v56.328c-9.288,3.304-16,12.104-16,22.52v8c0,13.232,10.768,24,24,24h8v16
			c0,13.232,10.768,24,24,24h32c13.232,0,24-10.768,24-24v-16h40v8c0,4.416,3.584,8,8,8h112c4.416,0,8-3.584,8-8v-8h40v16
			c0,13.232,10.768,24,24,24h32c13.232,0,24-10.768,24-24v-16h8c13.232,0,24-10.768,24-24v-8
			C472,429.584,465.288,420.784,456,417.472z M141.224,251.416c5.624-16.4,21.408-27.416,39.272-27.416h151
			c17.864,0,33.648,11.016,39.272,27.416l18.216,53.128l-31.312,8.944l-10.096-20.208c-4.088-8.192-12.32-13.28-21.472-13.28
			h-28.216c-9.144,0-17.368,5.08-21.464,13.264c-0.128,0.256-0.24,0.52-0.344,0.792L266.44,320h-36.872l-9.64-25.944
			c-0.104-0.272-0.216-0.536-0.344-0.792C215.488,285.08,207.256,280,198.112,280h-28.216c-9.152,0-17.384,5.088-21.472,13.28
			l-8.616,17.248l-17.4-4.232L141.224,251.416z M341.976,317.864l-8.76,2.136h-49.704l7.392-19.896
			c1.416-2.544,4.056-4.104,6.984-4.104h28.216c3.048,0,5.8,1.696,7.16,4.424L341.976,317.864z M212.488,320h-33.704l-23.032-5.6
			l6.984-13.976c1.36-2.728,4.104-4.424,7.16-4.424h28.216c2.928,0,5.568,1.56,6.984,4.104L212.488,320z M64,456
			c-4.408,0-8-3.592-8-8v-8c0-4.408,3.592-8,8-8h42.808c-1.744,3.648-2.808,7.688-2.808,12s1.064,8.352,2.808,12H80H64z M136,488
			c0,4.408-3.592,8-8,8H96c-4.408,0-8-3.592-8-8v-16h48V488z M132,456c-6.616,0-12-5.384-12-12c0-6.616,5.384-12,12-12
			c6.616,0,12,5.384,12,12C144,450.616,138.616,456,132,456z M192,456h-34.808c1.744-3.648,2.808-7.688,2.808-12
			s-1.064-8.352-2.808-12H192V456z M304,472h-96v-40h96V472z M346.808,456H320v-24h26.808c-1.744,3.648-2.808,7.688-2.808,12
			S345.064,452.352,346.808,456z M312,416H200H72v-54.848c0-12.024,6.64-22.92,17.328-28.432l23.664-12.216l60.816,15.264
			c0.64,0.16,1.296,0.24,1.952,0.24h2.072h156.344H336c0.744,0,1.488-0.104,2.2-0.312l10.256-2.928l45.632-11.088l26.864,11.888
			C432.52,338.68,440,350.168,440,362.824V416H312z M360,444c0-6.616,5.384-12,12-12c6.616,0,12,5.384,12,12c0,6.616-5.384,12-12,12
			C365.384,456,360,450.616,360,444z M424,488c0,4.408-3.592,8-8,8h-32c-4.408,0-8-3.592-8-8v-16h48V488z M456,448
			c0,4.408-3.592,8-8,8h-16h-34.808c1.744-3.648,2.808-7.688,2.808-12s-1.064-8.352-2.808-12H448c4.408,0,8,3.592,8,8V448z"/>
	</g>
</g>
<g>
	<g>
		<rect x="216" y="352" width="80" height="16"/>
	</g>
</g>
<g>
	<g>
		<rect x="216" y="384" width="80" height="16"/>
	</g>
</g>
<g>
	<g>
		<rect x="232" y="248" width="48" height="16"/>
	</g>
</g>
<g>
	<g>
		<rect x="248" y="136" width="16" height="16"/>
	</g>
</g>
<g>
	<g>
		<rect x="248" y="168" width="16" height="16"/>
	</g>
</g>
<g>
	<g>
		<rect x="160" y="136" width="16" height="16"/>
	</g>
</g>
<g>
	<g>
		<rect x="160" y="168" width="16" height="16"/>
	</g>
</g>
<g>
	<g>
		<rect x="80" y="136" width="16" height="16"/>
	</g>
</g>
<g>
	<g>
		<rect x="200" y="96" width="16" height="16"/>
	</g>
</g>
<g>
	<g>
		<rect x="200" y="128" width="16" height="16"/>
	</g>
</g>
<g>
	<g>
		<rect x="200" y="160" width="16" height="16"/>
	</g>
</g>
<g>
	<g>
		<rect x="120" y="96" width="16" height="16"/>
	</g>
</g>
<g>
	<g>
		<rect x="120" y="128" width="16" height="16"/>
	</g>
</g>
<g>
	<g>
		<rect x="120" y="160" width="16" height="16"/>
	</g>
</g>
<g>
	<g>
		<rect x="120" y="192" width="16" height="16"/>
	</g>
</g>
<g>
	<g>
		<rect x="296" y="96" width="16" height="16"/>
	</g>
</g>
<g>
	<g>
		<rect x="296" y="128" width="16" height="16"/>
	</g>
</g>
<g>
	<g>
		<rect x="296" y="160" width="16" height="16"/>
	</g>
</g>
<g>
	<g>
		<rect x="336" y="136" width="16" height="16"/>
	</g>
</g>
<g>
	<g>
		<rect x="336" y="168" width="16" height="16"/>
	</g>
</g>
<g>
	<g>
		<rect x="376" y="96" width="16" height="16"/>
	</g>
</g>
<g>
	<g>
		<rect x="376" y="128" width="16" height="16"/>
	</g>
</g>
<g>
	<g>
		<rect x="376" y="160" width="16" height="16"/>
	</g>
</g>
<g>
	<g>
		<rect x="416" y="136" width="16" height="16"/>
	</g>
</g>
<g>
	<g>
		<path d="M440,0H72c-4.416,0-8,3.584-8,8v24c0,8.824,7.176,16,16,16v72h16V48h24v32h16V48h24v72h16V48h24v32h16V48h32v72h16V48h32
			v32h16V48h24v72h16V48h24v32h16V48h24v72h16V48c8.824,0,16-7.176,16-16V8C448,3.584,444.416,0,440,0z M392,32h-16h-64h-16h-80h-16
			h-64h-16H80V16h352l0.008,16H392z"/>
	</g>
</g>
<g>
	<g>
		<polygon points="440,240 440,232 424,232 424,240 416,240 416,256 424,256 424,264 440,264 440,256 448,256 448,240 		"/>
	</g>
</g>
<g>
	<g>
		<path d="M28,232c-15.44,0-28,12.56-28,28s12.56,28,28,28s28-12.56,28-28S43.44,232,28,232z M28,272c-6.616,0-12-5.384-12-12
			c0-6.616,5.384-12,12-12s12,5.384,12,12C40,266.616,34.616,272,28,272z"/>
	</g>
</g>
<g>
	<g>
		<path d="M484,160c-15.44,0-28,12.56-28,28s12.56,28,28,28s28-12.56,28-28S499.44,160,484,160z M484,200c-6.616,0-12-5.384-12-12
			c0-6.616,5.384-12,12-12c6.616,0,12,5.384,12,12C496,194.616,490.616,200,484,200z"/>
	</g>
</g>
<g>
</g>
<g>
</g>
<g>
</g>
<g>
</g>
<g>
</g>
<g>
</g>
<g>
</g>
<g>
</g>
<g>
</g>
<g>
</g>
<g>
</g>
<g>
</g>
<g>
</g>
<g>
</g>
<g>
</g>
</svg>
