<?xml version="1.0" encoding="iso-8859-1"?>
<!-- Generator: Adobe Illustrator 19.0.0, SVG Export Plug-In . SVG Version: 6.00 Build 0)  -->
<svg version="1.1" id="Layer_1" xmlns="http://www.w3.org/2000/svg" xmlns:xlink="http://www.w3.org/1999/xlink" x="0px" y="0px"
	 viewBox="0 0 295.239 295.239" style="enable-background:new 0 0 295.239 295.239;" xml:space="preserve">
<g>
	<g>
		<g>
			<path d="M271.429,76.19H174.5c9.729-7.862,15.976-19.876,15.976-33.333V23.81c0-13.129-10.681-23.81-23.81-23.81h-38.095
				c-13.129,0-23.81,10.681-23.81,23.81v19.048c0,13.457,6.248,25.471,15.976,33.333H23.81C10.681,76.19,0,86.871,0,100v171.429
				c0,13.129,10.681,23.81,23.81,23.81h247.619c13.129,0,23.81-10.681,23.81-23.81V100C295.238,86.871,284.557,76.19,271.429,76.19z
				 M114.286,42.857v-0.124c3.99,3.024,8.905,4.886,14.286,4.886h28.571v-9.524h-28.571c-7.876,0-14.286-6.41-14.286-14.286
				c0-7.876,6.41-14.286,14.286-14.286h38.095c7.876,0,14.286,6.41,14.286,14.286c0,7.876-6.41,14.286-14.286,14.286v9.524
				c5.381,0,10.295-1.862,14.286-4.886v0.124c0,18.376-14.957,33.333-33.333,33.333C129.244,76.19,114.286,61.233,114.286,42.857z
				 M161.905,200v38.095c0,7.876-6.41,14.286-14.286,14.286s-14.286-6.41-14.286-14.286V200H85.714v38.095
				c0,7.876-6.41,14.286-14.286,14.286c-7.876,0-14.286-6.41-14.286-14.286V133.333c0-7.876,6.41-14.286,14.286-14.286
				c7.876,0,14.286,6.41,14.286,14.286v38.095h38.095v9.524c0,13.129,10.681,23.81,23.81,23.81s23.81-10.681,23.81-23.81v-9.524
				h38.095v-38.095c0-7.876,6.41-14.286,14.286-14.286s14.286,6.41,14.286,14.286v104.762c0,7.876-6.41,14.286-14.286,14.286
				s-14.286-6.41-14.286-14.286V200H161.905z M133.333,180.952V83.214c4.476,1.59,9.271,2.5,14.286,2.5
				c5.014,0,9.81-0.91,14.286-2.5v97.738c0,7.876-6.41,14.286-14.286,14.286C139.743,195.238,133.333,188.828,133.333,180.952z
				 M285.715,271.429h-0.001c0,7.876-6.41,14.286-14.286,14.286H23.81c-7.876,0-14.286-6.41-14.286-14.286V100
				c0-7.876,6.41-14.286,14.286-14.286h100v76.19H95.238v-28.571c0-13.129-10.681-23.81-23.81-23.81
				c-13.129,0-23.81,10.681-23.81,23.81v104.762c0,13.129,10.681,23.81,23.81,23.81c13.129,0,23.81-10.681,23.81-23.81v-28.571
				h28.571v28.571c0,13.129,10.681,23.81,23.81,23.81s23.81-10.681,23.81-23.81v-28.571H200v28.571
				c0,13.129,10.681,23.81,23.81,23.81c13.129,0,23.81-10.681,23.81-23.81V133.333c0-13.129-10.681-23.81-23.81-23.81
				c-13.129,0-23.81,10.682-23.81,23.81v28.571h-28.571v-76.19h100c7.876,0,14.286,6.41,14.286,14.286V271.429z"/>
			<rect x="33.333" y="52.381" width="57.143" height="9.524"/>
			<rect x="71.429" y="33.333" width="19.048" height="9.524"/>
			<rect x="223.81" y="57.143" width="47.619" height="9.524"/>
			<rect x="209.524" y="38.095" width="33.333" height="9.524"/>
			<rect x="266.667" y="266.667" width="9.524" height="9.524"/>
			<rect x="247.619" y="266.667" width="9.524" height="9.524"/>
			<rect x="19.048" y="266.667" width="9.524" height="9.524"/>
			<rect x="52.381" y="33.333" width="9.524" height="9.524"/>
		</g>
	</g>
</g>
<g>
</g>
<g>
</g>
<g>
</g>
<g>
</g>
<g>
</g>
<g>
</g>
<g>
</g>
<g>
</g>
<g>
</g>
<g>
</g>
<g>
</g>
<g>
</g>
<g>
</g>
<g>
</g>
<g>
</g>
</svg>
