<?xml version="1.0" encoding="iso-8859-1"?>
<!-- Generator: Adobe Illustrator 19.0.0, SVG Export Plug-In . SVG Version: 6.00 Build 0)  -->
<svg version="1.1" id="Capa_1" xmlns="http://www.w3.org/2000/svg" xmlns:xlink="http://www.w3.org/1999/xlink" x="0px" y="0px"
	 viewBox="0 0 512 512" style="enable-background:new 0 0 512 512;" xml:space="preserve">
<g>
	<g>
		<path d="M472,96h-8V72c0-4.416-3.576-8-8-8h-48c-4.424,0-8,3.584-8,8v24h-25.76l-6.48-25.944C366.864,66.496,363.672,64,360,64
			H152c-3.672,0-6.864,2.496-7.76,6.056L137.76,96H112V72c0-4.416-3.576-8-8-8H56c-4.424,0-8,3.584-8,8v24h-8
			c-8.824,0-16,7.176-16,16v288c0,8.824,7.176,16,16,16h16c8.824,0,16-7.176,16-16v-8h24v8c0,8.824,7.176,16,16,16h48h32h48h32h48
			h32h48c8.824,0,16-7.176,16-16v-8h24v8c0,8.824,7.176,16,16,16h16c8.824,0,16-7.176,16-16V112C488,103.176,480.824,96,472,96z
			 M416,80h32v16h-32V80z M158.248,80h195.504l4,16H328v-8h-16v8h-48v-8h-16v8h-48v-8h-16v8h-29.752L158.248,80z M64,80h32v16H64V80
			z M184,400h-16v-32h16V400z M264,400h-16v-32h16V400z M344,400h-16v-32h16V400z M472,400h-16v-8c0-8.824-7.176-16-16-16h-24
			c-8.824,0-16,7.176-16,16v8h-40v-40c0-4.416-3.576-8-8-8h-32c-4.424,0-8,3.584-8,8v40h-32v-40c0-4.416-3.576-8-8-8h-32
			c-4.424,0-8,3.584-8,8v40h-32v-40c0-4.416-3.576-8-8-8h-32c-4.424,0-8,3.584-8,8v40h-40v-8c0-8.824-7.176-16-16-16H72
			c-8.824,0-16,7.176-16,16v8H40V112h16h48h40h224h40h48h16V400z"/>
	</g>
</g>
<g>
	<g>
		<path d="M168,216H72c-4.424,0-8,3.584-8,8v32c0,4.416,3.576,8,8,8h96c4.424,0,8-3.584,8-8v-32C176,219.584,172.424,216,168,216z
			 M160,248H80v-16h80V248z"/>
	</g>
</g>
<g>
	<g>
		<path d="M440,216h-24v-24c0-4.416-3.576-8-8-8h-32c-4.424,0-8,3.584-8,8v24h-24c-4.424,0-8,3.584-8,8v32c0,4.416,3.576,8,8,8h24
			v24c0,4.416,3.576,8,8,8h32c4.424,0,8-3.584,8-8v-24h24c4.424,0,8-3.584,8-8v-32C448,219.584,444.424,216,440,216z M432,248h-24
			c-4.424,0-8,3.584-8,8v24h-16v-24c0-4.416-3.576-8-8-8h-24v-16h24c4.424,0,8-3.584,8-8v-24h16v24c0,4.416,3.576,8,8,8h24V248z"/>
	</g>
</g>
<g>
	<g>
		<rect x="248" y="144" width="16" height="16"/>
	</g>
</g>
<g>
	<g>
		<rect x="296" y="144" width="16" height="16"/>
	</g>
</g>
<g>
	<g>
		<rect x="336" y="144" width="16" height="16"/>
	</g>
</g>
<g>
	<g>
		<rect x="208" y="144" width="16" height="16"/>
	</g>
</g>
<g>
	<g>
		<rect x="168" y="144" width="16" height="16"/>
	</g>
</g>
<g>
	<g>
		<path d="M496,416v16H16v-24H0v32c0,4.416,3.576,8,8,8h496c4.424,0,8-3.584,8-8v-24H496z"/>
	</g>
</g>
<g>
</g>
<g>
</g>
<g>
</g>
<g>
</g>
<g>
</g>
<g>
</g>
<g>
</g>
<g>
</g>
<g>
</g>
<g>
</g>
<g>
</g>
<g>
</g>
<g>
</g>
<g>
</g>
<g>
</g>
</svg>
