<?xml version="1.0" encoding="iso-8859-1"?>
<!-- Generator: Adobe Illustrator 19.0.0, SVG Export Plug-In . SVG Version: 6.00 Build 0)  -->
<svg version="1.1" id="Capa_1" xmlns="http://www.w3.org/2000/svg" xmlns:xlink="http://www.w3.org/1999/xlink" x="0px" y="0px"
	 viewBox="0 0 512 512" style="enable-background:new 0 0 512 512;" xml:space="preserve">
<g>
	<g>
		<path d="M400,0H267.776C252.52,0,238.816,8.472,232,22.112L203.056,80h-12.28l-6.888-41.32C183.248,34.832,179.912,32,176,32
			h-1.752L167.76,6.056C166.872,2.496,163.672,0,160,0h-48c-3.672,0-6.872,2.496-7.76,6.056L97.752,32H96
			c-3.912,0-7.248,2.832-7.888,6.68L81.224,80H80c-22.056,0-40,17.944-40,40v368c0,13.232,10.768,24,24,24h24h40h272
			c39.704,0,72-32.304,72-72V72C472,32.304,439.704,0,400,0z M118.248,16h35.504l4,16h-43.504L118.248,16z M102.776,48H104h64h1.224
			l5.336,32H144V64h-16v16H97.448L102.776,48z M120,496H96v-16h8v-16h-8v-16h8v-16h-8v-16h8v-16h-8v-16h8v-16h-8v-16h24V496z
			 M456,440c0,30.88-25.128,56-56,56H136V352c0-8.824-7.176-16-16-16H96c-8.824,0-16,7.176-16,16v144H64c-4.408,0-8-3.592-8-8V120
			c0-13.232,10.768-24,24-24h8h96h24c3.032,0,5.8-1.712,7.16-4.424l31.16-62.312C250.4,21.08,258.624,16,267.776,16H400
			c30.872,0,56,25.12,56,56V440z"/>
	</g>
</g>
<g>
	<g>
		<path d="M408,160h-6.936c-8.376,0-16.264,4.464-20.584,11.656l-17.056,28.432c-2.24,3.728-3.424,8-3.424,12.344V416
			c0,13.232,10.768,24,24,24h24c13.232,0,24-10.768,24-24V184C432,170.768,421.232,160,408,160z M416,416c0,4.408-3.584,8-8,8h-24
			c-4.416,0-8-3.592-8-8V212.432c0-1.448,0.4-2.872,1.144-4.12l17.056-28.424c1.44-2.4,4.072-3.888,6.864-3.888H408
			c4.416,0,8,3.592,8,8V416z"/>
	</g>
</g>
<g>
	<g>
		<path d="M173.952,157.328c-3.032-3.384-8.872-3.384-11.904,0C157.744,162.12,120,204.888,120,229.336c0,26.472,21.528,48,48,48
			s48-21.536,48-48C216,204.888,178.256,162.128,173.952,157.328z M168,261.336c-17.648,0-32-14.36-32-32
			c0-12.08,17.736-37.32,32-54.424c14.272,17.096,32,42.328,32,54.424C200,246.984,185.648,261.336,168,261.336z"/>
	</g>
</g>
<g>
	<g>
		<path d="M168,128c-48.52,0-88,39.48-88,88s39.48,88,88,88s88-39.48,88-88C256,167.48,216.52,128,168,128z M168,288
			c-39.696,0-72-32.304-72-72s32.304-72,72-72s72,32.304,72,72S207.696,288,168,288z"/>
	</g>
</g>
<g>
	<g>
		<path d="M328,336H184c-13.232,0-24,10.768-24,24v112c0,4.416,3.584,8,8,8h144c13.232,0,24-10.768,24-24V344
			C336,339.584,332.424,336,328,336z M320,456c0,4.408-3.584,8-8,8H176V360c0-4.408,3.592-8,8-8h136V456z"/>
	</g>
</g>
<g>
	<g>
		<rect x="192" y="368" width="72" height="16"/>
	</g>
</g>
<g>
	<g>
		<rect x="280" y="368" width="24" height="16"/>
	</g>
</g>
<g>
	<g>
		<rect x="192" y="432" width="72" height="16"/>
	</g>
</g>
<g>
	<g>
		<rect x="280" y="432" width="24" height="16"/>
	</g>
</g>
<g>
	<g>
		<rect x="192" y="400" width="32" height="16"/>
	</g>
</g>
<g>
	<g>
		<rect x="240" y="400" width="64" height="16"/>
	</g>
</g>
<g>
	<g>
		<path d="M392,48H280c-13.232,0-24,10.768-24,24v32c0,13.232,10.768,24,24,24h82.392c5.432,0,10.752-1.864,14.992-5.264
			l29.608-23.688C412.72,94.472,416,87.64,416,80.312V72C416,58.768,405.232,48,392,48z M400,80.312c0,2.44-1.096,4.72-3.008,6.248
			l-29.608,23.688c-1.416,1.128-3.192,1.752-4.992,1.752H280c-4.416,0-8-3.592-8-8V72c0-4.408,3.584-8,8-8h112c4.416,0,8,3.592,8,8
			V80.312z"/>
	</g>
</g>
<g>
	<g>
		<rect x="288" y="160" width="48" height="16"/>
	</g>
</g>
<g>
	<g>
		<rect x="288" y="192" width="48" height="16"/>
	</g>
</g>
<g>
	<g>
		<rect x="288" y="224" width="48" height="16"/>
	</g>
</g>
<g>
	<g>
		<rect x="288" y="256" width="48" height="16"/>
	</g>
</g>
<g>
	<g>
		<rect x="288" y="288" width="48" height="16"/>
	</g>
</g>
<g>
</g>
<g>
</g>
<g>
</g>
<g>
</g>
<g>
</g>
<g>
</g>
<g>
</g>
<g>
</g>
<g>
</g>
<g>
</g>
<g>
</g>
<g>
</g>
<g>
</g>
<g>
</g>
<g>
</g>
</svg>
