<?xml version="1.0" encoding="iso-8859-1"?>
<!-- Generator: Adobe Illustrator 16.0.0, SVG Export Plug-In . SVG Version: 6.00 Build 0)  -->
<!DOCTYPE svg PUBLIC "-//W3C//DTD SVG 1.1//EN" "http://www.w3.org/Graphics/SVG/1.1/DTD/svg11.dtd">
<svg version="1.1" id="Capa_1" xmlns="http://www.w3.org/2000/svg" xmlns:xlink="http://www.w3.org/1999/xlink" x="0px" y="0px"
	 width="792.007px" height="792.007px" viewBox="0 0 792.007 792.007" style="enable-background:new 0 0 792.007 792.007;"
	 xml:space="preserve">
<g>
	<g>
		<path d="M303.59,711.452c-0.799-0.126-1.523-0.042-2.23,0.076c1.515-106.625,1.153-213.654,6.135-320.161
			c4.688-100.019,17.388-206.787-10.949-304.558c13.003,5.513,33.219,3.451,36.711-12.161c3.366-15.023-7.297-31.182-16.311-42.132
			c-9.157-11.118-24.138-23.582-39.649-20.729c-12.397,2.272-18.314,13.205-21.226,25.181c-5.984-9.316-14.24-16.664-25.72-16.007
			c-15.216,0.875-25.956,15.696-31.393,28.489c-5.605,13.197-8.736,31.098,0.892,43.276c10.091,12.759,27.698,8.374,41.038,1.75
			c-5.033,45.742-3.308,93.007-3.568,138.826c-0.32,54.293,1.229,108.628,2.727,162.895c2.988,108.132,6.194,216.289,10.437,324.378
			c-14.981-5.016-36.24-9.316-45.271,6.632c-7.229,12.768-0.286,29.912,6.573,41.223c6.556,10.815,18.793,24.458,32.781,23.532
			c9.948-0.656,15.385-7.743,18.364-16.571c3.998,5.537,9.359,9.947,16.773,12.17c14.081,4.225,29.785-2.576,40.617-11.346
			c10.479-8.483,19.854-21.57,18.693-35.71C337.549,722.478,319.446,713.901,303.59,711.452z"/>
		<path d="M440.362,67.099c10.444-12.607,15.133-31.435,6.708-45.986C438.822,6.864,420.93,0.989,405.436,0.097
			c-15.933-0.917-33.085,4.629-42.242,18.305c-8.955,13.374-5.117,29.81,1.725,43.924c-12.271-1.784-24.962,0.126-27.521,14.265
			c-2.988,16.488,8.298,34.565,17.657,47.148c8.736,11.749,22.48,28.506,38.572,28.969c14.493,0.42,17.801-14.249,16.134-27.193
			c87.622,38.083,111.937,164.023,119.536,248.556c10.133,112.802-24.391,231.058-128.895,286.757
			c-3.754-46.197-69.914-56.919-83.817-8.534c-8.417,29.297,20.51,58.459,47.728,58.055c-4.141,9.409-5.605,19.585-1.582,29.962
			c6.11,15.747,22.892,24.433,38.69,27.185c14.047,2.449,31.09,0.438,40.811-11.084c11.084-13.146,5.209-30.299-3.114-43.655
			c31.005-3.72,73.137-51.65,86.274-65.882c46.584-50.48,60.471-114.326,68.727-181.252
			C612.896,313.441,570.394,157.076,440.362,67.099z"/>
	</g>
</g>
<g>
</g>
<g>
</g>
<g>
</g>
<g>
</g>
<g>
</g>
<g>
</g>
<g>
</g>
<g>
</g>
<g>
</g>
<g>
</g>
<g>
</g>
<g>
</g>
<g>
</g>
<g>
</g>
<g>
</g>
</svg>
