<?xml version="1.0" encoding="iso-8859-1"?>
<!-- Generator: Adobe Illustrator 19.0.0, SVG Export Plug-In . SVG Version: 6.00 Build 0)  -->
<svg version="1.1" id="Layer_1" xmlns="http://www.w3.org/2000/svg" xmlns:xlink="http://www.w3.org/1999/xlink" x="0px" y="0px"
	 viewBox="0 0 297.209 297.209" style="enable-background:new 0 0 297.209 297.209;" xml:space="preserve">
<g>
	<g>
		<g>
			<rect x="29.556" y="192.448" width="9.524" height="9.524"/>
			<path d="M91.461,192.447H48.604v9.524h42.857c2.624,0,4.762,2.134,4.762,4.762v19.048h9.524v-19.048
				C105.747,198.857,99.337,192.447,91.461,192.447z"/>
			<path d="M262.889,1.971h-76.19c-18.381,0-33.333,14.957-33.333,33.333V225.78c0,18.376,14.952,33.333,33.333,33.333h33.029
				c-3.038,27.086-31.767,28.571-37.79,28.571c-14.576,0-38-5.776-59.305-12.105c1.376-3.648,2.162-7.581,2.162-11.705v-57.143
				c0-16.757-12.443-30.629-28.571-32.952V44.829v-9.524v-1.971L62.889,0L23.428,39.462l9.929,14.89l-9.524,14.286l9.524,14.286
				l-9.295,13.943l5.495,10.99v65.924c-16.129,2.324-28.571,16.195-28.571,32.952v57.143c0,18.376,14.952,33.333,33.333,33.333
				h57.143c10.757,0,20.314-5.148,26.414-13.081c22.471,6.743,47.89,13.081,64.062,13.081c22.386,0,44.938-11.843,47.376-38.095
				h33.576c18.381,0,33.333-14.957,33.333-33.333V35.305C296.223,16.929,281.27,1.971,262.889,1.971z M35.28,68.638l9.524-14.286
				l-9.119-13.681l27.204-27.204l23.81,23.81v7.552V173.4H67.651V54.352h-9.524V173.4H39.08v-67.79l-4.029-8.052l9.752-14.633
				L35.28,68.638z M115.271,263.876c0,3.157-0.648,6.162-1.771,8.924c-8.257-2.576-15.886-5.109-22.205-7.276
				c0.062-0.548,0.167-1.081,0.167-1.648c0-7.876-6.41-14.286-14.286-14.286H48.604c-7.876,0-14.286,6.41-14.286,14.286
				c0,7.876,6.41,14.286,14.286,14.286h28.571c3.833,0,7.305-1.538,9.871-4c5.9,2.038,13.038,4.424,20.829,6.886
				c-4.281,4.09-10.043,6.638-16.414,6.638H34.318c-13.129,0-23.81-10.681-23.81-23.81v-57.143c0-13.129,10.681-23.81,23.81-23.81
				h4.762h19.048h9.524h19.047h4.762c13.129,0,23.81,10.681,23.81,23.81V263.876z M71.556,268.633H48.604
				c-2.624,0-4.762-2.133-4.762-4.762c0-2.629,2.138-4.762,4.762-4.762h28.571c2.01,0,3.71,1.257,4.41,3.024
				c-4.6-1.633-7.357-2.662-7.5-2.719l-3.343,8.919C70.875,268.381,71.175,268.495,71.556,268.633z M286.699,225.781
				c0,13.129-10.681,23.81-23.81,23.81h-76.19c-13.129,0-23.81-10.681-23.81-23.81V35.305c0-13.129,10.681-23.81,23.81-23.81h76.19
				c13.129,0,23.81,10.681,23.81,23.81V225.781z"/>
			<path d="M239.08,30.543h-28.571c-18.381,0-33.333,14.957-33.333,33.333V197.21c0,18.376,14.952,33.333,33.333,33.333h28.571
				c18.381,0,33.333-14.957,33.333-33.333V63.876C272.413,45.5,257.461,30.543,239.08,30.543z M262.889,197.209
				c0,13.129-10.68,23.81-23.809,23.81h-28.571c-13.129,0-23.81-10.681-23.81-23.81v-61.905h76.19V197.209z M262.89,125.781
				L262.89,125.781h-76.191V63.876c0-13.129,10.681-23.81,23.81-23.81h28.571c13.129,0,23.81,10.681,23.81,23.81V125.781z"/>
			<path d="M234.318,54.352H215.27c-7.343,0-14.286,6.943-14.286,14.286h9.524c0-2.133,2.624-4.762,4.762-4.762h19.048
				c2.138,0,4.762,2.629,4.762,4.762v9.524h-38.095v33.333h47.619V68.638C248.604,61.295,241.661,54.352,234.318,54.352z
				 M239.08,101.971h-28.571V87.686h28.571V101.971z"/>
			<path d="M248.603,163.876c0.001-7.343-6.942-14.286-14.285-14.286H215.27c-7.343,0-14.286,6.943-14.286,14.286v42.857h47.619
				V163.876z M239.08,197.21h-28.571v-14.286h28.571V197.21z M239.081,173.4L239.081,173.4h-28.572v-9.524
				c0-2.133,2.624-4.762,4.762-4.762h19.048c2.138,0,4.762,2.629,4.762,4.762V173.4z"/>
			<rect x="177.175" y="21.019" width="9.524" height="9.524"/>
			<rect x="234.318" y="235.305" width="9.524" height="9.524"/>
			<rect x="253.366" y="235.305" width="9.524" height="9.524"/>
		</g>
	</g>
</g>
<g>
</g>
<g>
</g>
<g>
</g>
<g>
</g>
<g>
</g>
<g>
</g>
<g>
</g>
<g>
</g>
<g>
</g>
<g>
</g>
<g>
</g>
<g>
</g>
<g>
</g>
<g>
</g>
<g>
</g>
</svg>
