<?xml version="1.0" encoding="iso-8859-1"?>
<!-- Generator: Adobe Illustrator 19.0.0, SVG Export Plug-In . SVG Version: 6.00 Build 0)  -->
<svg version="1.1" id="Capa_1" xmlns="http://www.w3.org/2000/svg" xmlns:xlink="http://www.w3.org/1999/xlink" x="0px" y="0px"
	 viewBox="0 0 512 512" style="enable-background:new 0 0 512 512;" xml:space="preserve">
<g>
	<g>
		<path d="M329.998,106.187H149.999C67.29,106.187,0,173.477,0,256.186s67.29,149.999,149.999,149.999h179.999
			c5.522,0,10-4.478,10-10V116.187C339.998,110.664,335.52,106.187,329.998,106.187z M319.998,386.185H149.999
			C78.317,386.185,20,327.869,20,256.186c0-71.682,58.317-129.999,129.999-129.999h96.373v181.999c0,5.522,4.478,10,10,10
			s10-4.478,10-10V126.187h53.626V386.185z"/>
	</g>
</g>
<g>
	<g>
		<path d="M263.437,349.116c-1.859-1.86-4.429-2.93-7.069-2.93c-2.63,0-5.21,1.069-7.07,2.93c-1.86,1.861-2.92,4.44-2.92,7.07
			s1.06,5.21,2.92,7.069c1.87,1.86,4.44,2.931,7.07,2.931c2.64,0,5.21-1.07,7.069-2.931c1.87-1.859,2.931-4.439,2.931-7.069
			S265.307,350.976,263.437,349.116z"/>
	</g>
</g>
<g>
	<g>
		<path d="M501.997,245.812H383.998c-5.522,0-10,4.477-10,10c0,5.523,4.478,10,10,10h117.999c5.522,0,10-4.478,10-10
			C511.997,250.289,507.519,245.812,501.997,245.812z"/>
	</g>
</g>
<g>
	<g>
		<path d="M511.656,180.652c-1.43-5.334-6.909-8.499-12.248-7.07l-117.999,31.631c-5.335,1.43-8.5,6.914-7.07,12.249
			c1.197,4.467,5.238,7.413,9.653,7.413c0.856,0,1.728-0.111,2.595-0.343l117.999-31.631
			C509.921,191.471,513.086,185.987,511.656,180.652z"/>
	</g>
</g>
<g>
	<g>
		<path d="M510.657,94.621c-2.763-4.783-8.878-6.423-13.661-3.659l-117.999,68.14c-4.782,2.762-6.421,8.877-3.659,13.66
			c1.852,3.208,5.214,5.001,8.67,5.001c1.696,0,3.416-0.432,4.991-1.342l117.999-68.14
			C511.78,105.519,513.419,99.404,510.657,94.621z"/>
	</g>
</g>
<g>
	<g>
		<path d="M504.586,319.099l-117.999-31.631c-5.337-1.43-10.818,1.736-12.248,7.07s1.735,10.818,7.07,12.248l117.999,31.631
			c0.867,0.232,1.738,0.344,2.595,0.344c4.415,0,8.456-2.946,9.653-7.414C513.086,326.013,509.921,320.529,504.586,319.099z"/>
	</g>
</g>
<g>
	<g>
		<path d="M506.998,403.718l-117.999-68.14c-4.784-2.761-10.899-1.122-13.661,3.659c-2.762,4.783-1.123,10.899,3.659,13.661
			l117.999,68.14c1.575,0.909,3.295,1.342,4.991,1.342c3.456,0,6.817-1.794,8.67-5.001
			C513.419,412.595,511.78,406.479,506.998,403.718z"/>
	</g>
</g>
<g>
</g>
<g>
</g>
<g>
</g>
<g>
</g>
<g>
</g>
<g>
</g>
<g>
</g>
<g>
</g>
<g>
</g>
<g>
</g>
<g>
</g>
<g>
</g>
<g>
</g>
<g>
</g>
<g>
</g>
</svg>
