<?xml version="1.0" encoding="iso-8859-1"?>
<!-- Generator: Adobe Illustrator 19.0.0, SVG Export Plug-In . SVG Version: 6.00 Build 0)  -->
<svg version="1.1" id="Capa_1" xmlns="http://www.w3.org/2000/svg" xmlns:xlink="http://www.w3.org/1999/xlink" x="0px" y="0px"
	 viewBox="0 0 512.008 512.008" style="enable-background:new 0 0 512.008 512.008;" xml:space="preserve">
<g>
	<g>
		<path d="M456.004,352h-80c-13.232,0-24,10.768-24,24v16c0,4.424,3.584,8,8,8h72c17.648,0,32-14.352,32-32v-8
			C464.004,355.576,460.42,352,456.004,352z M432.004,384h-64v-8c0-4.416,3.592-8,8-8h72C448.004,376.824,440.828,384,432.004,384z"
			/>
	</g>
</g>
<g>
	<g>
		<path d="M216.004,352h-80c-4.416,0-8,3.576-8,8v8c0,17.648,14.352,32,32,32h72c4.416,0,8-3.576,8-8v-16
			C240.004,362.768,229.236,352,216.004,352z M224.004,384h-64c-8.824,0-16-7.176-16-16h72c4.408,0,8,3.584,8,8V384z"/>
	</g>
</g>
<g>
	<g>
		<path d="M496.004,417.472v-54.656c0-18.984-11.216-36.208-28.576-43.888L451.772,312h20.232v-16h-29.032l-17.064-49.776
			c-7.84-22.864-29.704-38.224-54.4-38.224H220.5c-24.704,0-46.568,15.36-54.408,38.224L149.036,296h-29.032v16h14.56l-12.576,6.496
			c-16.024,8.272-25.984,24.616-25.984,42.656v56.328c-9.288,3.312-16,12.112-16,22.528v8c0,13.232,10.768,24,24,24h8v16
			c0,13.232,10.768,24,24,24h32c13.232,0,24-10.768,24-24v-16h40v8c0,4.424,3.584,8,8,8h112c4.416,0,8-3.576,8-8v-8h40v16
			c0,13.232,10.768,24,24,24h32c13.232,0,24-10.768,24-24v-16h8c13.232,0,24-10.768,24-24v-8
			C512.004,429.584,505.292,420.784,496.004,417.472z M181.228,251.416C186.852,235.016,202.636,224,220.5,224h151
			c17.864,0,33.648,11.016,39.272,27.416l18.216,53.12l-31.312,8.952l-10.096-20.216C383.492,285.088,375.26,280,366.108,280
			h-28.216c-9.152,0-17.368,5.088-21.464,13.264c-0.128,0.256-0.24,0.52-0.344,0.792L306.444,320h-36.872l-9.64-25.944
			c-0.104-0.264-0.216-0.528-0.344-0.792c-4.096-8.176-12.32-13.264-21.472-13.264H209.9c-9.152,0-17.376,5.088-21.472,13.272
			l-8.616,17.248l-17.392-4.232L181.228,251.416z M381.98,317.872L373.22,320h-49.704l7.392-19.896
			c1.408-2.544,4.056-4.104,6.984-4.104h28.216c3.048,0,5.8,1.696,7.16,4.432L381.98,317.872z M252.492,320h-33.704l-23.032-5.6
			l6.976-13.976c1.368-2.728,4.112-4.424,7.168-4.424h28.216c2.928,0,5.576,1.56,6.984,4.104L252.492,320z M104.004,456
			c-4.408,0-8-3.584-8-8v-8c0-4.416,3.592-8,8-8h42.808c-1.744,3.648-2.808,7.688-2.808,12s1.064,8.352,2.808,12h-26.808H104.004z
			 M176.004,488c0,4.416-3.592,8-8,8h-32c-4.408,0-8-3.584-8-8v-16h48V488z M172.004,456c-6.616,0-12-5.384-12-12
			c0-6.616,5.384-12,12-12c6.616,0,12,5.384,12,12C184.004,450.616,178.62,456,172.004,456z M232.004,456h-34.808
			c1.744-3.648,2.808-7.688,2.808-12s-1.064-8.352-2.808-12h34.808V456z M344.004,472h-96v-40h96V472z M386.812,456h-26.808v-24
			h26.808c-1.744,3.648-2.808,7.688-2.808,12S385.068,452.352,386.812,456z M352.004,416h-112h-128v-54.848
			c0-12.024,6.64-22.92,17.32-28.44l23.664-12.216l60.816,15.264c0.64,0.168,1.296,0.24,1.952,0.24h2.072h156.344h1.832
			c0.744,0,1.488-0.104,2.2-0.304l10.312-2.944l45.576-11.08l26.856,11.888c11.576,5.12,19.056,16.608,19.056,29.264V416H352.004z
			 M400.004,444c0-6.616,5.384-12,12-12c6.616,0,12,5.384,12,12c0,6.616-5.384,12-12,12C405.388,456,400.004,450.616,400.004,444z
			 M464.004,488c0,4.416-3.592,8-8,8h-32c-4.408,0-8-3.584-8-8v-16h48V488z M496.004,448c0,4.416-3.592,8-8,8h-16h-34.808
			c1.744-3.648,2.808-7.688,2.808-12s-1.064-8.352-2.808-12h50.808c4.408,0,8,3.584,8,8V448z"/>
	</g>
</g>
<g>
	<g>
		<rect x="256.004" y="352" width="80" height="16"/>
	</g>
</g>
<g>
	<g>
		<rect x="256.004" y="384" width="80" height="16"/>
	</g>
</g>
<g>
	<g>
		<path d="M344.148,0h-64.144h-192h-72c-8.824,0-16,7.176-16,16v480c0,8.824,7.176,16,16,16h80v-16h-80V16h64v24h-32
			c-8.824,0-16,7.176-16,16v384c0,8.824,7.176,16,16,16h16v-16h-16V56h32v16c0,13.232,10.768,24,24,24h160c13.232,0,24-10.768,24-24
			V56h24v136h16V56c0-8.824-7.176-16-16-16h-24V16h56.144l-0.144,175.992l16,0.016l0.144-176C360.148,7.176,352.972,0,344.148,0z
			 M272.004,72c0,4.416-3.592,8-8,8h-160c-4.408,0-8-3.584-8-8V16h176V72z"/>
	</g>
</g>
<g>
	<g>
		<path d="M498.204,56.304l-56-16c-1.44-0.408-2.96-0.408-4.4,0l-56,16c-3.432,0.984-5.8,4.128-5.8,7.696v76.512
			c0,2.744,1.4,5.296,3.72,6.76l56,35.488c1.304,0.824,2.792,1.24,4.28,1.24c1.488,0,2.976-0.416,4.28-1.24l56-35.488
			c2.32-1.464,3.72-4.016,3.72-6.76V64C504.004,60.432,501.636,57.288,498.204,56.304z M488.004,136.12l-48,30.416l-48-30.416
			V70.032l48-13.712l48,13.712V136.12z"/>
	</g>
</g>
<g>
	<g>
		<path d="M121.604,123.2l-18.472,24.616l-9.48-9.48L82.34,149.648l16,16c1.512,1.52,3.552,2.352,5.664,2.352
			c0.184,0,0.376-0.008,0.568-0.024c2.312-0.168,4.44-1.32,5.832-3.176l24-32L121.604,123.2z"/>
	</g>
</g>
<g>
	<g>
		<path d="M121.604,179.2l-18.472,24.616l-9.48-9.48L82.34,205.648l16,16c1.512,1.52,3.552,2.352,5.664,2.352
			c0.184,0,0.376-0.008,0.568-0.024c2.312-0.168,4.44-1.32,5.832-3.176l24-32L121.604,179.2z"/>
	</g>
</g>
<g>
	<g>
		<path d="M121.604,235.2l-18.472,24.616l-9.472-9.472l-11.312,11.312l16,16c1.504,1.512,3.544,2.344,5.656,2.344
			c0.184,0,0.376-0.008,0.568-0.024c2.312-0.168,4.44-1.32,5.832-3.176l24-32L121.604,235.2z"/>
	</g>
</g>
<g>
	<g>
		<rect x="152.004" y="136" width="128" height="16"/>
	</g>
</g>
<g>
	<g>
		<rect x="152.004" y="192" width="32" height="16"/>
	</g>
</g>
<g>
	<g>
		<rect x="120.004" y="40" width="16" height="16"/>
	</g>
</g>
<g>
	<g>
		<rect x="232.004" y="40" width="16" height="16"/>
	</g>
</g>
<g>
	<g>
		<rect x="176.004" y="40" width="16" height="16"/>
	</g>
</g>
<g>
	<g>
		<rect x="432.004" y="80" width="16" height="32"/>
	</g>
</g>
<g>
	<g>
		<rect x="432.004" y="128" width="16" height="16"/>
	</g>
</g>
<g>
</g>
<g>
</g>
<g>
</g>
<g>
</g>
<g>
</g>
<g>
</g>
<g>
</g>
<g>
</g>
<g>
</g>
<g>
</g>
<g>
</g>
<g>
</g>
<g>
</g>
<g>
</g>
<g>
</g>
</svg>
