<?xml version="1.0" encoding="iso-8859-1"?>
<!-- Generator: Adobe Illustrator 19.0.0, SVG Export Plug-In . SVG Version: 6.00 Build 0)  -->
<svg version="1.1" id="Capa_1" xmlns="http://www.w3.org/2000/svg" xmlns:xlink="http://www.w3.org/1999/xlink" x="0px" y="0px"
	 viewBox="0 0 511.999 511.999" style="enable-background:new 0 0 511.999 511.999;" xml:space="preserve">
<g>
	<g>
		<path d="M390.159,202.333c-3.987-0.747-7.835,1.884-8.583,5.878c-11.288,60.326-64.099,104.11-125.576,104.11
			c-70.446,0-127.759-57.312-127.759-127.759S185.554,56.802,256,56.802c61.312,0,114.098,43.646,125.514,103.779
			c0.758,3.992,4.613,6.612,8.599,5.855c3.992-0.758,6.613-4.608,5.855-8.6C383.235,90.769,324.371,42.089,256,42.089
			c-78.559,0-142.472,63.913-142.472,142.472S177.441,327.032,256,327.032c68.554,0,127.448-48.833,140.037-116.115
			C396.784,206.923,394.153,203.08,390.159,202.333z"/>
	</g>
</g>
<g>
	<g>
		<path d="M256,0C154.83,0,72.521,82.308,72.521,183.479c0,52.492,21.548,114.452,64.046,184.16
			c2.114,3.469,6.644,4.565,10.11,2.452c3.468-2.115,4.566-6.641,2.451-10.111c-41.07-67.367-61.895-126.75-61.895-176.501
			c0-93.058,75.708-168.766,168.766-168.766s168.766,75.708,168.766,168.766c0,52.263-22.892,114.975-68.038,186.393
			c-37.192,58.835-79.707,107.325-96.259,125.442c-1.162,1.272-2.749,1.973-4.468,1.973s-3.307-0.701-4.468-1.973
			c-15.242-16.682-45.354-51.167-75.778-94.686c-2.327-3.329-6.915-4.142-10.243-1.814c-3.33,2.328-4.143,6.914-1.814,10.244
			c30.901,44.203,61.49,79.233,76.973,96.179c3.926,4.297,9.513,6.762,15.33,6.762c5.817,0,11.404-2.465,15.33-6.762
			c39.445-43.174,168.148-193.973,168.148-321.759C439.479,82.308,357.17,0,256,0z"/>
	</g>
</g>
<g>
	<g>
		<path d="M269.656,83.417H217.77v0.001c-11.217,0-20.005,7.767-20.005,17.681v167.792c0,10.563,9.925,17.94,24.136,17.94
			c13.985,0,24.135-7.545,24.135-17.94v-52.533h21.555c43.228,0,68.02-24.039,68.02-65.954v-1.549
			C335.611,107.268,311.572,83.417,269.656,83.417z M320.899,150.405c0,42.351-28.988,51.241-53.307,51.241H238.68
			c-4.063,0-7.356,3.294-7.356,7.356v59.889c0,0.958-3.657,3.227-9.422,3.227c-5.754,0-9.423-2.119-9.423-3.227V101.1
			c0-1.459,1.98-2.969,5.292-2.969h51.887c15.778,0,28.143,3.818,36.751,11.346c9.615,8.41,14.49,21.659,14.49,39.379V150.405z"/>
	</g>
</g>
<g>
	<g>
		<path d="M267.592,112.846H238.68v0.001c-4.063,0-7.356,3.294-7.356,7.356v62.469c0,4.063,3.293,7.356,7.356,7.356h28.912
			c21.579,0,34.462-13.848,34.462-37.042v-3.097C302.054,126.694,289.171,112.846,267.592,112.846z M287.341,152.986
			c0,15.234-6.276,22.329-19.749,22.329h-21.555v-47.757h21.555c13.473,0.001,19.749,7.096,19.749,22.331V152.986z"/>
	</g>
</g>
<g>
</g>
<g>
</g>
<g>
</g>
<g>
</g>
<g>
</g>
<g>
</g>
<g>
</g>
<g>
</g>
<g>
</g>
<g>
</g>
<g>
</g>
<g>
</g>
<g>
</g>
<g>
</g>
<g>
</g>
</svg>
