<?xml version="1.0" encoding="iso-8859-1"?>
<!-- Generator: Adobe Illustrator 19.0.0, SVG Export Plug-In . SVG Version: 6.00 Build 0)  -->
<svg version="1.1" id="Capa_1" xmlns="http://www.w3.org/2000/svg" xmlns:xlink="http://www.w3.org/1999/xlink" x="0px" y="0px"
	 viewBox="0 0 512 512" style="enable-background:new 0 0 512 512;" xml:space="preserve">
<g>
	<g>
		<rect x="304" y="370.081" width="16" height="15.816"/>
	</g>
</g>
<g>
	<g>
		<path d="M511.8,273.001c-0.032-0.264,0.056-0.528,0-0.8l-24-104c-0.024-0.104-0.088-0.176-0.12-0.28
			c-0.04-0.152-0.04-0.304-0.096-0.456l-12.352-37.064c-3.144-9.416-11.712-15.8-21.536-16.312l-10.552-31.664
			c-3.264-9.776-12.376-16.344-22.68-16.344H352c-8.776,0-15.904,7.136-15.904,15.904v39.536c-0.016,0.176-0.096,0.312-0.096,0.48
			v48v24h-16v-120c0-2.76-1.424-5.32-3.76-6.784l-32-20c-2.592-1.624-5.888-1.624-8.488,0l-29.896,18.688L56.32,58.009
			c-1.04-0.056-1.936,0.104-2.864,0.408l-23.984,8C26.2,67.505,24,70.553,24,74.001v32c0,3.856,2.752,7.168,6.544,7.864L56,118.585
			v67.416c0,4.424,3.576,8,8,8c8.824,0,16,7.176,16,16c0,8.824-7.176,16-16,16s-16-7.176-16-16H32c0,17.648,14.352,32,32,32
			s32-14.352,32-32c0-14.88-10.208-27.432-24-30.984v-57.472l35.088,6.496L193.6,266.097H8c-4.368,0-7.904,3.536-7.904,7.904v88
			c0,13.176,10.728,23.904,23.904,23.904h24v-15.816H24c-4.464,0-8.096-3.632-8.096-8.096v-80.088h184.184v16.096
			c0,13.176,10.728,23.904,23.904,23.904h112v16.096h0.096h15.816H352v-56h144v16.096h-8c-13.176,0-23.904,10.728-23.904,23.904v8
			c0,13.176,10.728,23.904,23.904,23.904h8v8.096c0,4.416-3.584,8-8,8h-24v16h24c13.232,0,24-10.768,24-24v-88
			C512,273.649,511.84,273.345,511.8,273.001z M256,146.001v-67.56l24-15l24,15v115.56h-48V146.001z M240,81.673v54.712l-9.736-1.8
			l-19.112-54.112L240,81.673z M212.104,131.217l-46.056-8.528l30.64-35.12L212.104,131.217z M182.68,79.289l-29.192,33.464
			l-13.624-35.248L182.68,79.289z M72,105.273V90.001H56v12.304l-16-2.96V79.769l17.12-5.712l53.704,2.24l-27.608,31.056L72,105.273
			z M101.592,110.753l23.68-26.632l12.904,33.408L101.592,110.753z M200,218.001v28.16l-71.544-114.16L240,152.657v41.344h-16
			C210.768,194.001,200,204.769,200,218.001z M336,306.097H224c-4.464,0-8.096-3.632-8.096-8.096v-16h24.184v8h15.816v-8h16.184v8
			h15.816v-8h16.184v8h15.816v-8H336V306.097z M336,266.001H216v-48c0-4.416,3.584-8,8-8h24h64h24V266.001z M452.472,130.001
			c3.44,0,6.496,2.192,7.592,5.472l8.832,26.528H352v-32H452.472z M351.92,114.001L352,81.905h16v8.096h16v-8.096h16v8.096h16
			v-8.096h4.472c3.496,0,6.576,2.224,7.68,5.528L437,114.001H351.92z M384.096,266.001H352v-56.096h24
			c4.464,0,8.096,3.632,8.096,8.096V266.001z M399.904,266.001v-48c0-13.176-10.728-23.904-23.904-23.904h-24v-16.096h121.632
			l20.312,88H399.904z M496,338.089h-8v0.008c-4.464,0-8.096-3.632-8.096-8.096v-8c0-4.464,3.632-8.096,8.096-8.096h8V338.089z"/>
	</g>
</g>
<g>
	<g>
		<rect x="376" y="298.001" width="32" height="16"/>
	</g>
</g>
<g>
	<g>
		<path d="M120,378.001c-0.048,0-0.104,0-0.152,0C106.616,378.089,95.92,388.913,96,402.153c0.08,13.184,10.832,23.848,24,23.848
			c0.048,0,0.104,0,0.152,0c13.232-0.088,23.928-10.912,23.848-24.152C143.92,388.665,133.168,378.001,120,378.001z
			 M120.056,410.001c-0.024,0-0.04,0-0.056,0c-4.392,0-7.976-3.552-8-7.944c-0.032-4.416,3.536-8.032,7.944-8.056
			c0.024,0,0.04,0,0.056,0c4.392,0,7.976,3.552,8,7.944C128.032,406.361,124.464,409.977,120.056,410.001z"/>
	</g>
</g>
<g>
	<g>
		<path d="M231.848,378.001c-13.232,0.088-23.928,10.912-23.848,24.152c0.08,13.184,10.832,23.848,24,23.848
			c0.048,0,0.104,0,0.152,0c13.232-0.088,23.928-10.912,23.848-24.152C255.92,388.609,245,378.225,231.848,378.001z
			 M232.056,410.001c-0.024,0-0.04,0-0.056,0c-4.392,0-7.976-3.552-8-7.944c-0.032-4.416,3.536-8.032,7.944-8.056
			c0.024,0,0.04,0,0.056,0c4.392,0,7.976,3.552,8,7.944C240.032,406.361,236.464,409.977,232.056,410.001z"/>
	</g>
</g>
<g>
	<g>
		<path d="M434.136,450.089c1.152-1.008,2.312-2.016,3.4-3.12c12.016-12.168,18.568-28.28,18.464-45.368
			c-0.112-17.104-6.864-33.136-19.032-45.144c-12.072-11.912-28.016-18.456-44.952-18.456c-0.144,0-0.28,0-0.416,0
			c-17.104,0.112-33.136,6.864-45.144,19.032c-12.016,12.168-18.568,28.28-18.464,45.368c0.112,17.104,6.864,33.136,19.032,45.144
			c0.912,0.904,1.896,1.712,2.848,2.552h-75.744c1.152-1.016,2.312-2.024,3.4-3.128c12.016-12.168,18.568-28.28,18.464-45.368
			c-0.112-17.104-6.864-33.136-19.032-45.144c-12.064-11.912-28.008-18.456-44.944-18.456c-0.144,0-0.28,0-0.416,0
			c-17.104,0.112-33.136,6.864-45.144,19.032c-4.176,4.224-7.64,8.952-10.448,14c-2.936-5.288-6.624-10.2-11.048-14.576
			c-12.064-11.912-28.008-18.456-44.944-18.456c-0.144,0-0.28,0-0.416,0c-17.104,0.112-33.136,6.864-45.144,19.032
			c-12.008,12.16-18.568,28.28-18.456,45.368c0.112,17.104,6.864,33.136,19.032,45.144c0.912,0.904,1.896,1.712,2.848,2.552H0
			v15.816h118.048c0.648,0.016,1.288,0.088,1.936,0.088c0.144,0,0.28,0,0.416,0c0.576,0,1.136-0.072,1.704-0.096h107.944
			c0.648,0.024,1.288,0.096,1.936,0.096c0.144,0,0.28,0,0.416,0c0.576,0,1.136-0.072,1.704-0.096h155.944
			c0.648,0.024,1.288,0.096,1.936,0.096c0.144,0,0.28,0,0.416,0c0.576,0,1.136-0.072,1.704-0.096H512v-15.816H434.136z
			 M120.304,450.001c-0.112,0-0.208,0-0.312,0c-12.704,0-24.672-4.904-33.72-13.84c-9.12-9.008-14.192-21.032-14.272-33.856
			c-0.08-12.824,4.832-24.904,13.84-34.032c9.008-9.128,21.032-14.192,33.856-14.272c0.112,0,0.208,0,0.312,0
			c12.704,0,24.672,4.904,33.72,13.84c9.128,9.008,14.192,21.032,14.272,33.848s-4.832,24.904-13.84,34.032
			C145.152,444.849,133.128,449.921,120.304,450.001z M162.136,450.097c1.152-1.016,2.312-2.024,3.4-3.128
			c4.176-4.224,7.64-8.952,10.448-14c2.936,5.288,6.624,10.2,11.048,14.576c0.912,0.904,1.896,1.712,2.848,2.552H162.136z
			 M232.304,450.001c-0.112,0-0.208,0-0.312,0c-12.704,0-24.672-4.904-33.72-13.84c-9.128-9.008-14.192-21.032-14.272-33.848
			s4.832-24.912,13.84-34.04s21.032-14.192,33.848-14.272c0.112,0,0.208,0,0.312,0c12.704,0,24.672,4.904,33.72,13.84
			c9.128,9.008,14.192,21.032,14.272,33.848s-4.832,24.904-13.84,34.032C257.144,444.849,245.128,449.921,232.304,450.001z
			 M392.304,450.001c-0.112,0-0.208,0-0.312,0c-12.704,0-24.672-4.904-33.72-13.84c-9.12-9.008-14.192-21.032-14.272-33.856
			c-0.08-12.824,4.832-24.904,13.84-34.032c9.008-9.128,21.032-14.192,33.856-14.272c0.112,0,0.208,0,0.312,0
			c12.704,0,24.672,4.904,33.72,13.84c9.128,9.008,14.192,21.032,14.272,33.848s-4.832,24.904-13.84,34.032
			C417.152,444.849,405.128,449.921,392.304,450.001z"/>
	</g>
</g>
<g>
	<g>
		<path d="M392,378.001c-0.048,0-0.104,0-0.152,0c-13.232,0.088-23.928,10.912-23.848,24.152c0.08,13.184,10.832,23.848,24,23.848
			c0.048,0,0.104,0,0.152,0c13.232-0.088,23.928-10.912,23.848-24.152C415.92,388.665,405.168,378.001,392,378.001z
			 M392.056,410.001c-0.024,0-0.04,0-0.056,0c-4.392,0-7.976-3.552-8-7.944c-0.032-4.416,3.536-8.032,7.944-8.056
			c0.024,0,0.04,0,0.056,0c4.392,0,7.976,3.552,8,7.944C400.032,406.361,396.464,409.977,392.056,410.001z"/>
	</g>
</g>
<g>
	<g>
		<rect x="128" y="306.081" width="56" height="15.816"/>
	</g>
</g>
<g>
	<g>
		<rect x="96" y="306.081" width="16" height="15.816"/>
	</g>
</g>
<g>
	<g>
		<rect x="64" y="306.081" width="16" height="15.816"/>
	</g>
</g>
<g>
	<g>
		<rect x="448" y="194.081" width="16" height="15.816"/>
	</g>
</g>
<g>
	<g>
		<rect x="416" y="194.081" width="16" height="15.816"/>
	</g>
</g>
<g>
	<g>
		<rect x="272" y="82.001" width="16" height="16"/>
	</g>
</g>
<g>
	<g>
		<rect x="272" y="122.001" width="16" height="16"/>
	</g>
</g>
<g>
	<g>
		<rect x="272" y="162.001" width="16" height="16"/>
	</g>
</g>
<g>
	<g>
		<rect x="240" y="226.001" width="16" height="16"/>
	</g>
</g>
<g>
	<g>
		<rect x="272" y="226.001" width="16" height="16"/>
	</g>
</g>
<g>
	<g>
		<rect x="304" y="226.001" width="16" height="16"/>
	</g>
</g>
<g>
</g>
<g>
</g>
<g>
</g>
<g>
</g>
<g>
</g>
<g>
</g>
<g>
</g>
<g>
</g>
<g>
</g>
<g>
</g>
<g>
</g>
<g>
</g>
<g>
</g>
<g>
</g>
<g>
</g>
</svg>
