<?xml version="1.0" encoding="iso-8859-1"?>
<!-- Generator: Adobe Illustrator 19.0.0, SVG Export Plug-In . SVG Version: 6.00 Build 0)  -->
<svg version="1.1" id="Capa_1" xmlns="http://www.w3.org/2000/svg" xmlns:xlink="http://www.w3.org/1999/xlink" x="0px" y="0px"
	 viewBox="0 0 512 512" style="enable-background:new 0 0 512 512;" xml:space="preserve">
<g>
	<g>
		<path d="M376,296c-44.112,0-80,35.888-80,80s35.888,80,80,80s80-35.888,80-80S420.112,296,376,296z M312,376
			c0-2.464,0.176-4.888,0.448-7.28L352,375.352v3.512l-39.232,6.544C312.312,382.336,312,379.208,312,376z M352.28,435.392
			c-15.832-6.352-28.576-18.8-35.224-34.472l41.992-7.008L352.28,435.392z M358.12,360.152l-41.824-7.008
			c6.344-16.52,19.312-29.768,35.68-36.424l7.192,42.208C358.784,359.304,358.472,359.744,358.12,360.152z M376,440
			c-2.776,0-5.488-0.24-8.168-0.584L374.264,400h3.472l6.456,39.416C381.504,439.76,378.784,440,376,440z M368,376
			c0-4.416,3.592-8,8-8c4.408,0,8,3.584,8,8c0,4.416-3.592,8-8,8C371.592,384,368,380.416,368,376z M377.784,352h-3.568
			l-6.712-39.368c2.792-0.376,5.608-0.632,8.496-0.632c2.896,0,5.72,0.264,8.52,0.632L377.784,352z M400.056,316.736
			c16.352,6.656,29.312,19.896,35.656,36.416l-41.824,7c-0.36-0.4-0.664-0.84-1.048-1.216L400.056,316.736z M399.752,435.376
			l-6.792-41.472l41.992,7.008C428.304,416.584,415.568,429.032,399.752,435.376z M400,378.864v-3.512l39.56-6.624
			c0.272,2.392,0.44,4.808,0.44,7.272c0,3.208-0.312,6.328-0.768,9.408L400,378.864z"/>
	</g>
</g>
<g>
	<g>
		<path d="M376,240c-36.176,0-70.696,14.576-96,39.752V24c0-13.232-10.768-24-24-24H96C82.768,0,72,10.768,72,24v176H16v-40H0v48
			c0,4.424,3.584,8,8,8h64v192v56h-1.752c-7.352,0-13.736,4.984-15.52,12.128l-6.488,25.936c-0.6,2.392-0.056,4.92,1.456,6.856
			c1.512,1.944,3.84,3.08,6.304,3.08h240c2.464,0,4.792-1.136,6.304-3.08c1.512-1.936,2.056-4.472,1.456-6.856l-3.248-12.992
			C322.568,503.792,348.72,512,376,512c74.992,0,136-61.008,136-136S450.992,240,376,240z M88,24c0-4.416,3.592-8,8-8h160
			c4.408,0,8,3.584,8,8v311.728L215.96,336c-3.656,0.024-6.832,2.512-7.72,6.064L201.752,368h-51.544l-6.408-25.624
			c-0.888-3.544-4.064-6.04-7.72-6.064L88,336.048V24z M88,352.048l41.784,0.232l6.416,25.656c0.888,3.568,4.088,6.064,7.76,6.064
			H208c3.672,0,6.872-2.496,7.76-6.064l6.496-25.968L264,351.736V400h-24c-13.232,0-24,10.768-24,24v40h-80v-40
			c0-13.232-10.768-24-24-24H88V352.048z M264,453.136V464h-32v-40c0-4.416,3.592-8,8-8h24v36.264l-0.424,0.288
			C263.712,452.752,263.864,452.936,264,453.136z M88,416h24c4.408,0,8,3.584,8,8v40H88V416z M66.248,496l4-16H80h48h96h48h9.752
			l4,16H66.248z M376,496c-37.888,0-73.36-17.88-96-48.056V408V304.184C302.616,274.024,338.264,256,376,256
			c66.168,0,120,53.832,120,120S442.168,496,376,496z"/>
	</g>
</g>
<g>
	<g>
		<path d="M240,48H112c-4.416,0-8,3.576-8,8v96c0,4.424,3.584,8,8,8h128c4.416,0,8-3.576,8-8V56C248,51.576,244.416,48,240,48z
			 M232,144H120V64h112V144z"/>
	</g>
</g>
<g>
	<g>
		<rect x="136" y="80" width="32" height="16"/>
	</g>
</g>
<g>
	<g>
		<rect x="184" y="80" width="32" height="16"/>
	</g>
</g>
<g>
	<g>
		<rect x="136" y="112" width="16" height="16"/>
	</g>
</g>
<g>
	<g>
		<rect x="168" y="112" width="16" height="16"/>
	</g>
</g>
<g>
	<g>
		<rect x="200" y="112" width="16" height="16"/>
	</g>
</g>
<g>
	<g>
		<rect x="120" y="192" width="32" height="16"/>
	</g>
</g>
<g>
	<g>
		<polygon points="224,192 224,184 208,184 208,192 200,192 200,208 208,208 208,216 224,216 224,208 232,208 232,192 		"/>
	</g>
</g>
<g>
	<g>
		<path d="M136,224c-13.232,0-24,10.768-24,24s10.768,24,24,24s24-10.768,24-24S149.232,224,136,224z M136,256c-4.408,0-8-3.584-8-8
			s3.592-8,8-8s8,3.584,8,8S140.408,256,136,256z"/>
	</g>
</g>
<g>
	<g>
		<path d="M216,224c-13.232,0-24,10.768-24,24s10.768,24,24,24s24-10.768,24-24S229.232,224,216,224z M216,256c-4.408,0-8-3.584-8-8
			s3.592-8,8-8s8,3.584,8,8S220.408,256,216,256z"/>
	</g>
</g>
<g>
	<g>
		<rect x="24" y="144" width="16" height="48"/>
	</g>
</g>
<g>
	<g>
		<rect x="48" y="144" width="16" height="48"/>
	</g>
</g>
<g>
	<g>
		<rect x="48" y="224" width="16" height="64"/>
	</g>
</g>
<g>
	<g>
		<path d="M40,321.472V224H24v97.472C14.712,324.784,8,333.584,8,344c0,10.416,6.712,19.216,16,22.528V384h16v-17.472
			c9.288-3.312,16-12.112,16-22.528C56,333.584,49.288,324.784,40,321.472z M32,352c-4.408,0-8-3.584-8-8c0-4.416,3.592-8,8-8
			s8,3.584,8,8C40,348.416,36.408,352,32,352z"/>
	</g>
</g>
<g>
</g>
<g>
</g>
<g>
</g>
<g>
</g>
<g>
</g>
<g>
</g>
<g>
</g>
<g>
</g>
<g>
</g>
<g>
</g>
<g>
</g>
<g>
</g>
<g>
</g>
<g>
</g>
<g>
</g>
</svg>
