<?xml version="1.0" encoding="iso-8859-1"?>
<!-- Generator: Adobe Illustrator 19.0.0, SVG Export Plug-In . SVG Version: 6.00 Build 0)  -->
<svg version="1.1" id="Capa_1" xmlns="http://www.w3.org/2000/svg" xmlns:xlink="http://www.w3.org/1999/xlink" x="0px" y="0px"
	 viewBox="0 0 512 512" style="enable-background:new 0 0 512 512;" xml:space="preserve">
<g>
	<g>
		<path d="M336,16h176V0H336c-13.232,0-24,10.768-24,24v160c0,13.232,10.768,24,24,24h121.072l-0.848,18.944l-27.8,13.896
			C425.712,242.2,424,244.968,424,248v24c0,4.424,3.576,8,8,8h80v-16h-72v-11.056l27.576-13.792c2.592-1.296,4.28-3.896,4.416-6.8
			L473.088,208H512v-16H336c-4.416,0-8-3.584-8-8V24C328,19.584,331.584,16,336,16z"/>
	</g>
</g>
<g>
	<g>
		<path d="M400,120c-30.872,0-56,25.128-56,56h16c0-22.056,17.944-40,40-40c22.056,0,40,17.944,40,40h16
			C456,145.128,430.872,120,400,120z"/>
	</g>
</g>
<g>
	<g>
		<rect x="392" y="152" width="16" height="24"/>
	</g>
</g>
<g>
	<g>
		<path d="M457.056,36.032l-27.36,47.88L397,57.744c-3.416-2.736-8.36-2.208-11.152,1.128l-40,48l12.296,10.248l34.976-41.976
			l33.872,27.104c1.832,1.464,4.192,2.04,6.496,1.608c2.296-0.44,4.288-1.856,5.448-3.888l32-56L457.056,36.032z"/>
	</g>
</g>
<g>
	<g>
		<rect x="480" y="64" width="32" height="16"/>
	</g>
</g>
<g>
	<g>
		<rect x="464" y="96" width="48" height="16"/>
	</g>
</g>
<g>
	<g>
		<rect x="480" y="128" width="32" height="16"/>
	</g>
</g>
<g>
	<g>
		<path d="M432,304h-64c-13.232,0-24,10.768-24,24v28.728l-40-7.944V320v-48v-40c0-7.184-3.232-13.56-8.248-17.96l-7.992-31.976
			c-0.896-3.568-4.088-6.064-7.76-6.064v-24c0-8.824-7.176-16-16-16h-17.472c-3.312-9.288-12.112-16-22.528-16h-16V64
			c0-35.288-28.712-64-64-64H64C28.712,0,0,28.712,0,64v384c0,35.288,28.712,64,64,64h80c26.8,0,49.768-16.576,59.288-40H224
			c10.416,0,19.216-6.712,22.528-16H264c8.824,0,16-7.176,16-16v-24c3.672,0,6.864-2.496,7.76-6.064l7.992-31.976
			c3.824-3.352,6.624-7.832,7.712-12.984L344,373.032V432c0,13.232,10.768,24,24,24h64c13.232,0,24-10.768,24-24V328
			C456,314.768,445.232,304,432,304z M192,104h-16v16h16v8v32h-16v16h16v40h-16v16h16v48h-16v16h16v40h-16v16h16v40h-16v16h16v16v24
			h-16v16h13.2c-6.608,18.616-24.344,32-45.2,32H72v-80H56v79.28c-17.304-2.928-31.456-15.104-37.2-31.28H32v-16H16v-40h16v-16H16
			v-40h16v-16H16v-40h16v-16H16v-48h16v-16H16v-40h16v-16H16v-40h16v-16H16V64h16V48H18.8C25.408,29.384,43.144,16,64,16h72v80h16
			V16.72c17.304,2.92,31.456,15.104,37.2,31.28H176v16h16V104z M270.248,192h3.504l4,16h-11.504L270.248,192z M208,136h16
			c4.416,0,8,3.584,8,8v8c0,4.416-3.584,8-8,8h-16V136z M232,448c0,4.416-3.584,8-8,8h-16v-8v-16h16c4.416,0,8,3.584,8,8V448z
			 M264,440h-16c0-13.232-10.768-24-24-24h-16V176h16c13.232,0,24-10.768,24-24h16v24c-3.672,0-6.864,2.496-7.76,6.064
			l-7.992,31.976C243.232,218.44,240,224.816,240,232v40v48v40c0,7.184,3.232,13.56,8.248,17.96l7.992,31.976
			c0.896,3.568,4.088,6.064,7.76,6.064V440z M273.752,400h-3.504l-4-16h11.504L273.752,400z M288,360c0,4.416-3.584,8-8,8h-16
			c-4.416,0-8-3.584-8-8v-32h32V360z M288,312h-32v-32h32V312z M288,264h-32v-32c0-4.416,3.584-8,8-8h16c4.416,0,8,3.584,8,8V264z
			 M440,432c0,4.416-3.584,8-8,8h-64c-4.416,0-8-3.584-8-8v-55.784l32,6.36V408h16v-32c0-3.824-2.696-7.104-6.448-7.84L360,359.904
			V328c0-4.416,3.584-8,8-8h64c4.416,0,8,3.584,8,8V432z"/>
	</g>
</g>
<g>
	<g>
		<rect x="96" y="32" width="16" height="96"/>
	</g>
</g>
<g>
	<g>
		<rect x="96" y="192" width="16" height="128"/>
	</g>
</g>
<g>
	<g>
		<rect x="96" y="352" width="16" height="128"/>
	</g>
</g>
<g>
	<g>
		<rect x="56" y="48" width="16" height="160"/>
	</g>
</g>
<g>
	<g>
		<rect x="56" y="240" width="16" height="144"/>
	</g>
</g>
<g>
	<g>
		<rect x="136" y="304" width="16" height="160"/>
	</g>
</g>
<g>
	<g>
		<rect x="136" y="128" width="16" height="144"/>
	</g>
</g>
<g>
	<g>
		<rect x="408" y="336" width="16" height="16"/>
	</g>
</g>
<g>
</g>
<g>
</g>
<g>
</g>
<g>
</g>
<g>
</g>
<g>
</g>
<g>
</g>
<g>
</g>
<g>
</g>
<g>
</g>
<g>
</g>
<g>
</g>
<g>
</g>
<g>
</g>
<g>
</g>
</svg>
